<mxfile host="Electron" agent="Mozilla/5.0 (Windows NT 10.0; Win64; x64) AppleWebKit/537.36 (KHTML, like Gecko) draw.io/24.7.17 Chrome/128.0.6613.36 Electron/32.0.1 Safari/537.36" version="24.7.17">
  <diagram name="Page-1" id="GLDq5bMen8jlPRQu5EKH">
    <mxGraphModel dx="2440" dy="984" grid="1" gridSize="10" guides="1" tooltips="1" connect="1" arrows="1" fold="1" page="1" pageScale="1" pageWidth="850" pageHeight="1100" math="0" shadow="0">
      <root>
        <mxCell id="0" />
        <mxCell id="1" parent="0" />
        <mxCell id="KMpIxaAEJdpiu075ooxI-1" value="{name}-vpc&lt;div&gt;172.16.0.0/24&lt;/div&gt;" style="points=[[0,0],[0.25,0],[0.5,0],[0.75,0],[1,0],[1,0.25],[1,0.5],[1,0.75],[1,1],[0.75,1],[0.5,1],[0.25,1],[0,1],[0,0.75],[0,0.5],[0,0.25]];outlineConnect=0;gradientColor=none;html=1;whiteSpace=wrap;fontSize=12;fontStyle=0;container=0;pointerEvents=0;collapsible=0;recursiveResize=0;shape=mxgraph.aws4.group;grIcon=mxgraph.aws4.group_vpc2;strokeColor=#8C4FFF;fillColor=none;verticalAlign=top;align=left;spacingLeft=30;fontColor=#AAB7B8;dashed=0;movable=1;resizable=1;rotatable=1;deletable=1;editable=1;locked=0;connectable=1;" parent="1" vertex="1">
          <mxGeometry x="300" y="111" width="1152" height="950" as="geometry" />
        </mxCell>
        <mxCell id="KMpIxaAEJdpiu075ooxI-2" value="AWS Cloud" style="points=[[0,0],[0.25,0],[0.5,0],[0.75,0],[1,0],[1,0.25],[1,0.5],[1,0.75],[1,1],[0.75,1],[0.5,1],[0.25,1],[0,1],[0,0.75],[0,0.5],[0,0.25]];outlineConnect=0;gradientColor=none;html=1;whiteSpace=wrap;fontSize=12;fontStyle=0;container=1;pointerEvents=0;collapsible=0;recursiveResize=0;shape=mxgraph.aws4.group;grIcon=mxgraph.aws4.group_aws_cloud_alt;strokeColor=#232F3E;fillColor=none;verticalAlign=top;align=left;spacingLeft=30;fontColor=#232F3E;dashed=0;" parent="1" vertex="1">
          <mxGeometry x="240" y="31" width="1270" height="1070" as="geometry" />
        </mxCell>
        <mxCell id="KMpIxaAEJdpiu075ooxI-3" value="us-east-1" style="points=[[0,0],[0.25,0],[0.5,0],[0.75,0],[1,0],[1,0.25],[1,0.5],[1,0.75],[1,1],[0.75,1],[0.5,1],[0.25,1],[0,1],[0,0.75],[0,0.5],[0,0.25]];outlineConnect=0;gradientColor=none;html=1;whiteSpace=wrap;fontSize=12;fontStyle=0;container=1;pointerEvents=0;collapsible=0;recursiveResize=0;shape=mxgraph.aws4.group;grIcon=mxgraph.aws4.group_region;strokeColor=#00A4A6;fillColor=none;verticalAlign=top;align=left;spacingLeft=30;fontColor=#147EBA;dashed=1;movable=1;resizable=1;rotatable=1;deletable=1;editable=1;locked=0;connectable=1;" parent="KMpIxaAEJdpiu075ooxI-2" vertex="1">
          <mxGeometry x="35" y="34" width="1207" height="1016" as="geometry" />
        </mxCell>
        <mxCell id="KMpIxaAEJdpiu075ooxI-35" value="{name}-alb-sg" style="fillColor=none;strokeColor=#DD3522;verticalAlign=top;fontStyle=0;fontColor=#DD3522;whiteSpace=wrap;html=1;" parent="KMpIxaAEJdpiu075ooxI-3" vertex="1">
          <mxGeometry x="386" y="136" width="132" height="130" as="geometry" />
        </mxCell>
        <mxCell id="KMpIxaAEJdpiu075ooxI-4" value="us-east-1b" style="rounded=1;arcSize=10;dashed=1;strokeColor=#F59D56;fillColor=none;gradientColor=none;dashPattern=8 4;strokeWidth=2;verticalAlign=top;" parent="KMpIxaAEJdpiu075ooxI-3" vertex="1">
          <mxGeometry x="470" y="290" width="372" height="670" as="geometry" />
        </mxCell>
        <mxCell id="KMpIxaAEJdpiu075ooxI-5" value="us-east-1a" style="rounded=1;arcSize=10;dashed=1;strokeColor=#F59D56;fillColor=none;gradientColor=none;dashPattern=8 4;strokeWidth=2;verticalAlign=top;" parent="KMpIxaAEJdpiu075ooxI-3" vertex="1">
          <mxGeometry x="40" y="290" width="402" height="680" as="geometry" />
        </mxCell>
        <mxCell id="KMpIxaAEJdpiu075ooxI-6" value="{name}-alb" style="sketch=0;outlineConnect=0;fontColor=#232F3E;gradientColor=none;fillColor=#8C4FFF;strokeColor=none;dashed=0;verticalLabelPosition=bottom;verticalAlign=top;align=center;html=1;fontSize=12;fontStyle=0;aspect=fixed;pointerEvents=1;shape=mxgraph.aws4.application_load_balancer;container=0;movable=1;resizable=1;rotatable=1;deletable=1;editable=1;locked=0;connectable=1;" parent="KMpIxaAEJdpiu075ooxI-3" vertex="1">
          <mxGeometry x="412" y="160" width="80" height="78" as="geometry" />
        </mxCell>
        <mxCell id="KMpIxaAEJdpiu075ooxI-7" value="Self-Signed X.509 Certificate" style="points=[[0.015,0.015,0],[0.25,0,0],[0.5,0,0],[0.75,0,0],[0.985,0.015,0],[1,0.22,0],[1,0.44,0],[1,0.67,0],[0.985,0.89,0],[0,0.22,0],[0,0.44,0],[0,0.67,0],[0.015,0.89,0],[0.25,0.91,0],[0.5,0.91,0],[0.785,0.955,0]];verticalLabelPosition=bottom;sketch=0;html=1;verticalAlign=top;aspect=fixed;align=center;pointerEvents=1;shape=mxgraph.cisco19.x509_certificate;fillColor=#005073;strokeColor=none;movable=1;resizable=1;rotatable=1;deletable=1;editable=1;locked=0;connectable=1;" parent="KMpIxaAEJdpiu075ooxI-3" vertex="1">
          <mxGeometry x="285" y="116" width="52" height="47.5" as="geometry" />
        </mxCell>
        <mxCell id="KMpIxaAEJdpiu075ooxI-8" value="{name}-public-subnet-1&lt;div&gt;172.16.0.0/27&lt;/div&gt;" style="points=[[0,0],[0.25,0],[0.5,0],[0.75,0],[1,0],[1,0.25],[1,0.5],[1,0.75],[1,1],[0.75,1],[0.5,1],[0.25,1],[0,1],[0,0.75],[0,0.5],[0,0.25]];outlineConnect=0;gradientColor=none;html=1;whiteSpace=wrap;fontSize=12;fontStyle=0;container=1;pointerEvents=0;collapsible=0;recursiveResize=0;shape=mxgraph.aws4.group;grIcon=mxgraph.aws4.group_security_group;grStroke=0;strokeColor=#7AA116;fillColor=#F2F6E8;verticalAlign=top;align=left;spacingLeft=30;fontColor=#248814;dashed=0;movable=1;resizable=1;rotatable=1;deletable=1;editable=1;locked=0;connectable=1;" parent="KMpIxaAEJdpiu075ooxI-3" vertex="1">
          <mxGeometry x="60" y="336" width="362" height="200" as="geometry" />
        </mxCell>
        <mxCell id="KMpIxaAEJdpiu075ooxI-9" value="{name}-public-subnet-2&lt;div&gt;172.16.0.32/27&lt;/div&gt;" style="points=[[0,0],[0.25,0],[0.5,0],[0.75,0],[1,0],[1,0.25],[1,0.5],[1,0.75],[1,1],[0.75,1],[0.5,1],[0.25,1],[0,1],[0,0.75],[0,0.5],[0,0.25]];outlineConnect=0;gradientColor=none;html=1;whiteSpace=wrap;fontSize=12;fontStyle=0;container=1;pointerEvents=0;collapsible=0;recursiveResize=0;shape=mxgraph.aws4.group;grIcon=mxgraph.aws4.group_security_group;grStroke=0;strokeColor=#7AA116;fillColor=#F2F6E8;verticalAlign=top;align=left;spacingLeft=30;fontColor=#248814;dashed=0;movable=1;resizable=1;rotatable=1;deletable=1;editable=1;locked=0;connectable=1;" parent="KMpIxaAEJdpiu075ooxI-3" vertex="1">
          <mxGeometry x="490" y="330" width="322" height="200" as="geometry" />
        </mxCell>
        <mxCell id="KMpIxaAEJdpiu075ooxI-10" value="{name}-public-nat-gateway-1" style="sketch=0;outlineConnect=0;fontColor=#232F3E;gradientColor=none;fillColor=#8C4FFF;strokeColor=none;dashed=0;verticalLabelPosition=bottom;verticalAlign=top;align=center;html=1;fontSize=12;fontStyle=0;aspect=fixed;pointerEvents=1;shape=mxgraph.aws4.nat_gateway;" parent="KMpIxaAEJdpiu075ooxI-9" vertex="1">
          <mxGeometry x="146" y="62" width="80" height="78" as="geometry" />
        </mxCell>
        <mxCell id="KMpIxaAEJdpiu075ooxI-11" value="{name}-ig" style="sketch=0;outlineConnect=0;fontColor=#232F3E;gradientColor=none;fillColor=#8C4FFF;strokeColor=none;dashed=0;verticalLabelPosition=bottom;verticalAlign=top;align=center;html=1;fontSize=12;fontStyle=0;aspect=fixed;pointerEvents=1;shape=mxgraph.aws4.internet_gateway;movable=1;resizable=1;rotatable=1;deletable=1;editable=1;locked=0;connectable=1;" parent="KMpIxaAEJdpiu075ooxI-3" vertex="1">
          <mxGeometry x="1042" y="66" width="80" height="78" as="geometry" />
        </mxCell>
        <mxCell id="KMpIxaAEJdpiu075ooxI-12" value="{name}-public-route-table" style="sketch=0;outlineConnect=0;fontColor=#232F3E;gradientColor=none;fillColor=#8C4FFF;strokeColor=none;dashed=0;verticalLabelPosition=bottom;verticalAlign=top;align=center;html=1;fontSize=12;fontStyle=0;aspect=fixed;pointerEvents=1;shape=mxgraph.aws4.route_table;" parent="KMpIxaAEJdpiu075ooxI-3" vertex="1">
          <mxGeometry x="1042" y="399" width="80" height="76" as="geometry" />
        </mxCell>
        <mxCell id="KMpIxaAEJdpiu075ooxI-13" value="{name}-public-nacl" style="sketch=0;outlineConnect=0;fontColor=#232F3E;gradientColor=none;fillColor=#8C4FFF;strokeColor=none;dashed=0;verticalLabelPosition=bottom;verticalAlign=top;align=center;html=1;fontSize=12;fontStyle=0;aspect=fixed;pointerEvents=1;shape=mxgraph.aws4.network_access_control_list;" parent="KMpIxaAEJdpiu075ooxI-3" vertex="1">
          <mxGeometry x="885" y="399" width="80" height="78" as="geometry" />
        </mxCell>
        <mxCell id="KMpIxaAEJdpiu075ooxI-14" value="{name}-private-nacl" style="sketch=0;outlineConnect=0;fontColor=#232F3E;gradientColor=none;fillColor=#8C4FFF;strokeColor=none;dashed=0;verticalLabelPosition=bottom;verticalAlign=top;align=center;html=1;fontSize=12;fontStyle=0;aspect=fixed;pointerEvents=1;shape=mxgraph.aws4.network_access_control_list;" parent="KMpIxaAEJdpiu075ooxI-3" vertex="1">
          <mxGeometry x="885" y="698" width="80" height="78" as="geometry" />
        </mxCell>
        <mxCell id="KMpIxaAEJdpiu075ooxI-15" value="{name}-private-subnet-2&lt;div&gt;172.16.0.96/27&lt;/div&gt;" style="points=[[0,0],[0.25,0],[0.5,0],[0.75,0],[1,0],[1,0.25],[1,0.5],[1,0.75],[1,1],[0.75,1],[0.5,1],[0.25,1],[0,1],[0,0.75],[0,0.5],[0,0.25]];outlineConnect=0;gradientColor=none;html=1;whiteSpace=wrap;fontSize=12;fontStyle=0;container=0;pointerEvents=0;collapsible=0;recursiveResize=0;shape=mxgraph.aws4.group;grIcon=mxgraph.aws4.group_security_group;grStroke=0;strokeColor=#00A4A6;fillColor=#E6F6F7;verticalAlign=top;align=left;spacingLeft=30;fontColor=#147EBA;dashed=0;movable=1;resizable=1;rotatable=1;deletable=1;editable=1;locked=0;connectable=1;" parent="KMpIxaAEJdpiu075ooxI-3" vertex="1">
          <mxGeometry x="490" y="554" width="322" height="386" as="geometry" />
        </mxCell>
        <mxCell id="KMpIxaAEJdpiu075ooxI-16" value="{name}-frontend-sg" style="fillColor=none;strokeColor=#DD3522;verticalAlign=top;fontStyle=0;fontColor=#DD3522;whiteSpace=wrap;html=1;movable=1;resizable=1;rotatable=1;deletable=1;editable=1;locked=0;connectable=1;container=0;" parent="KMpIxaAEJdpiu075ooxI-3" vertex="1">
          <mxGeometry x="510.4545454545455" y="603" width="165.63636363636363" height="130" as="geometry" />
        </mxCell>
        <mxCell id="KMpIxaAEJdpiu075ooxI-17" value="" style="sketch=0;points=[[0,0,0],[0.25,0,0],[0.5,0,0],[0.75,0,0],[1,0,0],[0,1,0],[0.25,1,0],[0.5,1,0],[0.75,1,0],[1,1,0],[0,0.25,0],[0,0.5,0],[0,0.75,0],[1,0.25,0],[1,0.5,0],[1,0.75,0]];outlineConnect=0;fontColor=#232F3E;fillColor=#ED7100;strokeColor=#ffffff;dashed=0;verticalLabelPosition=bottom;verticalAlign=top;align=center;html=1;fontSize=12;fontStyle=0;aspect=fixed;shape=mxgraph.aws4.resourceIcon;resIcon=mxgraph.aws4.ec2;movable=1;resizable=1;rotatable=1;deletable=1;editable=1;locked=0;connectable=1;container=0;" parent="KMpIxaAEJdpiu075ooxI-3" vertex="1">
          <mxGeometry x="553.276719367589" y="629" width="80" height="78" as="geometry" />
        </mxCell>
        <mxCell id="KMpIxaAEJdpiu075ooxI-18" value="{name}-backend-sg" style="fillColor=none;strokeColor=#DD3522;verticalAlign=top;fontStyle=0;fontColor=#DD3522;whiteSpace=wrap;html=1;movable=1;resizable=1;rotatable=1;deletable=1;editable=1;locked=0;connectable=1;container=0;" parent="KMpIxaAEJdpiu075ooxI-3" vertex="1">
          <mxGeometry x="625.0027272727273" y="796" width="165.63636363636363" height="130" as="geometry" />
        </mxCell>
        <mxCell id="KMpIxaAEJdpiu075ooxI-19" value="" style="sketch=0;points=[[0,0,0],[0.25,0,0],[0.5,0,0],[0.75,0,0],[1,0,0],[0,1,0],[0.25,1,0],[0.5,1,0],[0.75,1,0],[1,1,0],[0,0.25,0],[0,0.5,0],[0,0.75,0],[1,0.25,0],[1,0.5,0],[1,0.75,0]];outlineConnect=0;fontColor=#232F3E;fillColor=#ED7100;strokeColor=#ffffff;dashed=0;verticalLabelPosition=bottom;verticalAlign=top;align=center;html=1;fontSize=12;fontStyle=0;aspect=fixed;shape=mxgraph.aws4.resourceIcon;resIcon=mxgraph.aws4.ec2;movable=1;resizable=1;rotatable=1;deletable=1;editable=1;locked=0;connectable=1;container=0;" parent="KMpIxaAEJdpiu075ooxI-3" vertex="1">
          <mxGeometry x="667.8249011857707" y="822" width="80" height="78" as="geometry" />
        </mxCell>
        <mxCell id="KMpIxaAEJdpiu075ooxI-20" style="edgeStyle=orthogonalEdgeStyle;rounded=0;orthogonalLoop=1;jettySize=auto;html=1;entryX=0.5;entryY=0;entryDx=0;entryDy=0;" parent="KMpIxaAEJdpiu075ooxI-3" source="KMpIxaAEJdpiu075ooxI-6" target="KMpIxaAEJdpiu075ooxI-16" edge="1">
          <mxGeometry relative="1" as="geometry" />
        </mxCell>
        <mxCell id="KMpIxaAEJdpiu075ooxI-21" style="edgeStyle=orthogonalEdgeStyle;rounded=0;orthogonalLoop=1;jettySize=auto;html=1;entryX=0.5;entryY=0;entryDx=0;entryDy=0;" parent="KMpIxaAEJdpiu075ooxI-3" source="KMpIxaAEJdpiu075ooxI-6" target="KMpIxaAEJdpiu075ooxI-18" edge="1">
          <mxGeometry relative="1" as="geometry">
            <Array as="points">
              <mxPoint x="707" y="199" />
            </Array>
          </mxGeometry>
        </mxCell>
        <mxCell id="KMpIxaAEJdpiu075ooxI-22" value="" style="group" parent="KMpIxaAEJdpiu075ooxI-3" vertex="1" connectable="0">
          <mxGeometry x="60" y="554" width="359.5" height="386" as="geometry" />
        </mxCell>
        <mxCell id="KMpIxaAEJdpiu075ooxI-23" value="{name}-private-subnet-1&lt;div&gt;172.16.0.64/27&lt;/div&gt;" style="points=[[0,0],[0.25,0],[0.5,0],[0.75,0],[1,0],[1,0.25],[1,0.5],[1,0.75],[1,1],[0.75,1],[0.5,1],[0.25,1],[0,1],[0,0.75],[0,0.5],[0,0.25]];outlineConnect=0;gradientColor=none;html=1;whiteSpace=wrap;fontSize=12;fontStyle=0;container=0;pointerEvents=0;collapsible=0;recursiveResize=0;shape=mxgraph.aws4.group;grIcon=mxgraph.aws4.group_security_group;grStroke=0;strokeColor=#00A4A6;fillColor=#E6F6F7;verticalAlign=top;align=left;spacingLeft=30;fontColor=#147EBA;dashed=0;movable=1;resizable=1;rotatable=1;deletable=1;editable=1;locked=0;connectable=1;" parent="KMpIxaAEJdpiu075ooxI-22" vertex="1">
          <mxGeometry width="359.49999999999994" height="386" as="geometry" />
        </mxCell>
        <mxCell id="KMpIxaAEJdpiu075ooxI-29" value="" style="group" parent="KMpIxaAEJdpiu075ooxI-3" vertex="1" connectable="0">
          <mxGeometry x="235.005" y="606" width="164.5" height="130" as="geometry" />
        </mxCell>
        <mxCell id="KMpIxaAEJdpiu075ooxI-30" value="{name}-frontend-sg" style="fillColor=none;strokeColor=#DD3522;verticalAlign=top;fontStyle=0;fontColor=#DD3522;whiteSpace=wrap;html=1;movable=1;resizable=1;rotatable=1;deletable=1;editable=1;locked=0;connectable=1;container=0;" parent="KMpIxaAEJdpiu075ooxI-29" vertex="1">
          <mxGeometry width="164.50000000000003" height="130" as="geometry" />
        </mxCell>
        <mxCell id="KMpIxaAEJdpiu075ooxI-31" value="" style="sketch=0;points=[[0,0,0],[0.25,0,0],[0.5,0,0],[0.75,0,0],[1,0,0],[0,1,0],[0.25,1,0],[0.5,1,0],[0.75,1,0],[1,1,0],[0,0.25,0],[0,0.5,0],[0,0.75,0],[1,0.25,0],[1,0.5,0],[1,0.75,0]];outlineConnect=0;fontColor=#232F3E;fillColor=#ED7100;strokeColor=#ffffff;dashed=0;verticalLabelPosition=bottom;verticalAlign=top;align=center;html=1;fontSize=12;fontStyle=0;aspect=fixed;shape=mxgraph.aws4.resourceIcon;resIcon=mxgraph.aws4.ec2;movable=1;resizable=1;rotatable=1;deletable=1;editable=1;locked=0;connectable=1;container=0;" parent="KMpIxaAEJdpiu075ooxI-29" vertex="1">
          <mxGeometry x="40.00919354838709" y="26" width="80" height="78" as="geometry" />
        </mxCell>
        <mxCell id="KMpIxaAEJdpiu075ooxI-32" value="" style="shape=image;verticalLabelPosition=bottom;labelBackgroundColor=default;verticalAlign=top;aspect=fixed;imageAspect=0;image=data:image/png,iVBORw0KGgoAAAANSUhEUgAAAOEAAADhCAMAAAAJbSJIAAAAk1BMVEX///81lk81lU9rqnkxlUwrkki72MI0l0+qy7EAiTIAhSpvrX51sYPQ5NU2mFIQjDjz+PTG4M0lkUSLupXe6+Ecjz/l7+eGvpXv9fBdpW74+/kAhSVxs4KTv5xdqXGZwqJNnmGy1bsAgh1CmlhRombV5tmmya1jp3OgzayYwqGQw5262cJ9uIzI3c09llNor3oAfQwJXd4LAAAUAUlEQVR4nO1dC1viOhO2ISUUlWqlCEUUBK8ru+f//7qvucxkcimC7tp+z9P3nFUupWYyk7knnJ316NGjR48ePXr06NGjR48ePXr06NGjR49/gtfh9X5zPdwo/LqsMb0k2G82+/3T0+Zper25dDDV2L9ftk3CYUzXZVEWNfSPEPrFwvyLYds2DQcx26ZJIoRImPzFEvVAPlT/5HPzQpLA6/I6oT6irxLlW9tUHMIwr4fMmCJF0qJpYvJ/+ZgxwRR98iX5VF6qP8E07fVvvrhqm4wDGHNFnxy9pkIDhq/4aqgCRrKE/pIon9smoxkPpRLPJBEMaRAiIY+VmEqWCcEc8pgWYHkV387bJqQJ1YIbWlD45A8jqOoVAcQaARW4JhWZmnr+2DYlTRiVwCFNHw4dFIxZeIa1wEDmyKiS033bpMQxX3OgSGjZVIIomFmToG5A9ei5YEim1kDqY+l128REcVcwlDlcaXY1MkWAoFJpDQbQq98UxaptYqIYGz7BiDUZwK0EeMkE8EwvU8VVFONE/5d3kYlvBSwjAUShigH7B2w1Amn1kUBp1UuV/26bnBCjXDszQlty68joJSnfA88GTAlYCAaGxDo5STFomyAfVxcpLDrUkYz8shxKkB5tOzQzQWrhKr6etk2Sh1kukDI7XCOMuOpwCQqlRrXfpvjGQB/pGWCsHLVNkodHbvQjE0ZA0S0zGlINX+lYeCZ/aKLA8TFCoD6SDdumycE+B7VojH5itAeDwTP04bRaBd9AzYj6oGG3WbEJH7dNlINBatYX+GXgeQuhpVOAzTNcpVbR6iXFPBlfyLeKh7apInguQUcIs7pg9Ma5YQLIQEXDrGMHEi3AdqgL+aJqmy7E1XlqV5GjFpFRxFXFAIqRtxnqWftGcd6ZSPE619IncNCGTp4eBc4ETg5QKv9ls7YpM5gvTYRkXS9tA/jufHAEztepXrZaonXYoRTqsm3SDAZFYmI9WGraCRPH2rTZlhMBtUpIdCSMumbcqEnqv5ykKuYZ+N/oqKs7pS//dOTHYlUg86zhlqPMj1f3iwLUKsbICuXNPxz4sZhlhCqwBkoVnhDkVaCNXSnohrJZpBAdJcJR99kpvvMot9aF5iDT3T8b+LGYZzaWIGE9Y8XHSQb7PCXcYwkKa/n6r0Z+LF5SP4+kh3hq+LMfow5msAyl3Wg9jNq7EaDionJOT1aDm1KbCvDB4UHLYdR8l7qsS8ArOdlYq1QdFQdubtduGLUqPTUKQ/xCtmxUJnG06tmMuY2DnPnPT189FZEHBjkCNVsthlEvqSkbed7MF3MQYysKNtHIWIth1HTNTSLbkyu+/ZICXJWYD7fatL53MWgrjKpXjs0f2piPJfnXPJG5LLAmaFWt2vri/b6Np7GwqTS0YZKFxRfvuLcJx8TeTyRtVaMuUpF48YQOCvLNV285KFytBYFiS2HU2AkDLC+/UVeZLznjPBFcl7G4RG0YOZ+00KJR7TjoUIZ5eq1ZvzHhs3wSYr2dbFsw+4GBBslKv1NymG+uQzxdXrfgnM6kpdDqU1gTLTmZdbYMfxqGJTTLQAHJ5GmKRdtD+0tYuuUilNJut8OcgAdbD0VtqkjscjfMKTCNJYkpUVhF8y010yFcnSMLwY8xotqRDOe3ofNr2FNCHO+uZKm/izoshGyRW23pQvLvb2CfmxIgdpUYry3tTrXoexikpLHQtqYJnnarMv1ljEpdCjUlBov0oukjs/ljXhT5+ACKvCzxSZ4Vk3RcFPXDrCjKPBuPy/qCYtX4F/4mdD0U/BngoPw5fop/4umNC7AuiR9woTHFAiIKvowwmIwzTDaIF4MfyWdMM7L4BGlUKxtkdLYrzHzYyTDdX2QlC1DK2CoNRUV0nI4u1/0FCs0iJP1B9SrcxV3u4dLjli3gCCinCVsGJx4gvAJPfsqdMObelH2tz5Z+RBWpTNfTTJWXtYLeYdu44IbVpG2D/Zg7cbmli8o+iBrDfcqxE8oyyfVlbUsGzfgErbg/2GEzSO24CIV8GRHTVeFInTsvzK5D4b9DF61+9IPuxN7RNVb5RdbJNBOUPl8QcecC6f0mDXwJVmhq/GjzybCkLb6WidsgXzTNdR8XtpAy0y9E+1JAr5Kqmp47w0T14GcDz5ldiWTWY1m2p1LYQYsEmk/RykBLuPDlGPx608Lw43GZzHZTpWjWWrhU7lNGryGCDVMDHyU3s01jllye/WxcVi1SMNwyq6+d03pgqZ+k2UAgKYx9IW4QPMIOI6DLMBh6/dRbTe7EP8NDjkPE4creQp+J05IyELZ3Qa+igBsIFHQhbN7O2g7G1z8el61M/h3Mm3HD/dUyJT0WVqt6DbOoMZMkYYm3IrW6aaHWDb6bafKF8XIv4a0pNA1rtGxGCEBz4bg7xD2vve82Soh1DEUFEDjKS1ecNqV3jfMhm1MWVHW5l9fSX7ZRBp6uuR0icW08iyENC82qhmAJ2X6B1t5x6DhvgUDsfEYtCQP0vMf5Y8o8AfQhCRSgjiOsFllLW2iW3jDNoPxOmvnvMpRSSkXTm/hGay01q9wZDzwIupimo2XhtN00EBQjT/5qsS1KWgzhskFaj3DKpzd/xuUR7dAJ7aDFLSotdpkOOTd+ijP/ItbFVL1/3g094DaZQWS3zSyz9t18B7UOFL92u4c0Zu9b3Yw4z2DjK/haWsV/sWVynDgTpu5Yu9ytNicuUsI6kjL6SiwHXV+2VqBn68uNHX8Fs5KkbCDIrX9+Rb+bxgCBJzAofLG96u9h5TllJuz7Qigguy+x35/sKmm9K+AldQXU5NJOD+eGOUkNYxjcgT7vPWk6gbyD/L8pw9+IR6pCMYXRhXLdMkGfGSVMZsZOrKE8QL8X3kI+7cS2dbLfgizFhOUnKZuRzRkQk+FHm+3AbM2D1K61GKekNyu7GcEqmTBj0BKG3M4+pG/lw1OW0HupUxyM7i4SIpZEbwPnKWgZpyRxgu82Hwv0GXCOfrAS8xn23kqECL04+jykAc4R9XJ52gFFqjEsE+NFOrn+9PzIz+8ZCQetZS27oEg1Zmvru9niQ+1SHre3bjrmCUmgoqrqhprRGBnfjaEu1fsIj1M2KvVKfG1jEjuzCiWqBffcSb3DLkjyRzFmCZbXSKK7W+1VryUtV2OpSaR59hnyjAv3c/p3WzsQmgB5NzykBcRWtqIz047OdWu6hXrNWAnnUDCWpBcda68a4kbLBBcVcgYLLdjdQOpngiT0MXo61en7CYxKRkq9Ao03/tDLDEowWL83x4UQBqorOnUohoZJ8ickyCCJRuKxMkO/V4YhoYn81y01ozFIgSwrmwyZggwyFAlVbWSJdRLwOBD5tJVKzKcYg4Qh08hZHnqJ0Z4SvR4xswPk6f1464643C7U3jrYxaZNnKWTWWNnnpjDlsxDxhJmzWnnjlDSqD4KLGMjX1CDaCPAiDoRJLkt4CJ1YWd3NOwZd2yD7bfA5ZfYFYmbpVDT4FUdVKQGsqIoMEAAvaopwHXGyFPS5JDgbLCvFgV+APMsAQvobNJPSAuN458zBgsQGClfyDvcS71IVVOXPtGMNFxAE43bR6OTFgK6HQyvRfHeNhkHEOTdfDQXuxnqp+2pmdYfxU0Jvom3nxfO/Aq6gOGEPmxFOS7iag8DGSgK17CbR6hLhPemk4hk3TqILoRN8oNNjwhk4poHong7kuU+iMdUHWHG7T/OzU/9T59fZv7D5/hr3LUzLwPMX445wKwRL11KzvTo0aNHjx49evTo0aNHjx49evT4f8Zs2k7lbDoaPX+yh3E0Gv2FPNh0m51/9zSw59Gnd7iuR+u8MFgXRbnYHEhV7m/LouCv/izMXm+a8oLRxsRf6zThuX1r/1pfeXFw5gYf9SXvtqJYrfKi/Di4CWM+YEWR/7Lk3CzVVxPwYtlY1pou5YYdUW68RqVhxpuQPobHVb6U6oBnLPHWt5VX7poPtny9l1fwAk+GvNwVaqz/NRO4y1SltsRmgGk2Men1ybhpNmcmWV9628iWmJanv/XjyJazge6AwlPrVvosH142DXaWcVPlyM1nctNElb43dIVVtzAC8QvuYrcR8qaGRziAzrvgoSDdPgHCbxQ1FBawRpZ6bpvL2gvb1qln4SmH1hV+H1dZdyn0DuDeWroVtGjoCM1EjMKrBXzLkwHUPQ2ChoOB7ipCCsdGehp6bau7AtsAWPFHjx/qVSLlERKruwL//ATKWBk9FrCBxDxKYeMZ4zDtvs4bqAXPQgqjmzMq8+UnjMzCZc6wLsfvA0GtPlJS0UMKHQbEv3YjNyVah0LbGqzeRIFCTgr/G0VrHso3j6TwvqAL2/B5ObEvhYJ6x+2SsedWZchAxdpoU6A5GYE5FA5LECExmQg4Elc+5kC0d4azvw4PUnjltDsmXFO4oJvluCuo1W1Btd0WWJzRmarX50XE9IMycih8hOn8/TaUuB5q/BquzTfj+J3Mp1A421FakIczhwhHUGsRpR+wjVUuhbWWv4tQaMrwlMIHuB8PKu9zkHxP9zZQGDvKbr51CURttMontkzuCCpqUf1H7vAdl0J5r3XAxQgPR2bNJ5NIgw9aILddP6CQNfFw/ugRCFIqj1WZ0JdBUKXipa/f2pspCp0zfsIvUDEDJjy030QWU7/4rnucy/FSOkj9eUcKz24cFW4EtfowU6Jb58Q7ISHgYT3zvhrOzUcthbZ1JroTeWT2SzJOt0hqa3EEhftwTJZCQyJcogVVmk7bN1fcUh4hhbUNhUfcU/PGkyA8fIS/0dApias0J7c6dh0OuXElGEfRIxSevTmnOXA+PyCilMLdEA2cf1BDsA73cHaL2DVEJI9pPXxJwW97wYu2KQV4Ag0Uqm/V0XNxMYQ/RCk8u3FJXF9QAgV/d1dZZm8x52ZnSJK6xjqgcADflFZENK/CdLVU+ynGpN93/p88unO5Ay0Xp3CPSr+4q84gLnAorEmkLVfc2VHuiiilcCB1NFzndlr7FD7jYv/WTuQohdUFUKjsFhoe13d9cLio7gIXuiLqUUhczYw20HkUWkX6vZ3IUU3zgENQcgQU+t75TYNTLN4DW+dYZ3WwgVa49AC9nM6C3AQEMvq9Hq0YD5/xZAWdC2jgob8WAYGI+hTWETJuryNHlLixxRy3JbPvHf4T4eEN/Cn4iqBsQmMLioc8jExDET3zpFQHIKZn1zorrpQO0F/75skx44nRa0jhCqQDxSNrjiEDLvLfb7F8mkfh2RCDFht6OxReo2klRzrs3wfnEtGsFMryy/trDXwa8nAJRgjlX/FQHucXiZJXjhWMechRCsl5einkIRwKh3gEYI43eSzTxpwUx4zNQrcglp49RAqre1T7v0HRNa5DNWOO98ryeEY0oPBshZ/Ljc/prsMBHAadQ3BEz44g0Y2RdoyhPvHaqgsMYG1OrEmXqut9Hsb32mSmV57EDW8F9O3m+iwd9DJdTYMfeaGxdeKBYRw84HpjWkNssYPtspxbJXdgHd7z4K9F01MhD9GBZInQx/nlptveXHMN1gOc0oHzt+gWroSeL6xvG+RpjLUYIEd+k8C5UUqrRRro0nh6KkbhfgxOUaoiKS8ThRYfjoZ4OXBaGTk+IszTMMvD6RoG7OzibpLSOlyKpTHT+1BQYxSeDXN0wnchhej6QPg3X5P55A4X6bGVh+LDK/zqPPfE5SYKFzw8t1b+OREKapTCsyfwUEW6q2Ket35hAtn123zrfEcTKquI8Mek1Ab13HX64xR64RIlMV37JDbkVN7wFjUTgnwpKk/Qk9NnSERpoPuckzXVyMOP+W8rM66rG6VQ50UR3M07+oLaQOEZmdSqCLL6S0h3T+JbXCDv5Ryn1EQhX9tvd8w8DkQ1jcNBUSycSEPwuyp+C49Cm+3idlHiNXNYa2m0jDbbwewck6chAV5x790pQiFN3UuKbrWXgq+JNK2it/DLMrNtoKzINfgVpLEA6goySW6Oo5FCRPj9DqGU1oaeEChSFU24wVR6N4vcIiw8zTN/BOQa/EKk2EalWWY8BLc4ow9GJBS6d2cqqG+g0PJw4ZgmCJeQRKZJjOTaIqW1e19h0WtQFUWOVPsvXjbzeahm0Elhh5Pl+zTVIhBRjYfcUTdbS+IBCquB7/g5WX14MYihLmE+vWTxJ1IanJUdofDKGZKTF70pHRIvMAMGlZlYebS6c50VrzKjvVfhn8i1h83M/rl0IYWM8jB6no0npe4WRzeih/SUrwLi1U/A2olPnGvm8J4o3eNK4DDFNFJdi/JQjyB+zICnaR7plPgRvZuewk1iB6T0zJ7bHbsGTvkye5vNtnrc5yyC3aBRCv2g/jCFVrAZC5NONyU5HNQG0dHR2w8RSyO8a6AA5lavoLYfRtxNVW5FQUNSKzOSrKX0AYprLJ50ugF1w0gNeGymv6lN4Rm/yYgFswAVWf/bDNSjsCbV0KmgKWxIaoGm0QWgN1SkPJp0IoLKsCiGprupEWNj3ejCU5s3juZ2+MnSUG+E3SagaZq/3ME4jxPjzWXmj4hJNOlEuGjF/upen5bmj97ieqvjOl788VTHNONO1GQheGQ36B+1EVrgIfmyY0h+MN1OGpuVLv+oFqHUJAr+K/QfLBoP8r3J9Zj4BG1PtZgUhVgf2EP9tijrS9IklIvRLo18va2MniaxmtRryQUnzRD790VZlOvbQ4nl6qa+5M8tzO1Gdg8U6wN5zIePmhxW3JOM9nA4Gm0O7oKvRr/qS4bhNU+zzTCKzXXshlejdXbhkF49j0afbf2tL7GuwGyY5ZPDH7naDLNs1dYBMH+h+3I6/bxYMu38hukePXr06NGjR48ePXr06NGjR48ePXr0+GH8D7xG/sLiqwnsAAAAAElFTkSuQmCC;" parent="KMpIxaAEJdpiu075ooxI-29" vertex="1">
          <mxGeometry x="59.004999999999995" y="45" width="42" height="40" as="geometry" />
        </mxCell>
        <mxCell id="KMpIxaAEJdpiu075ooxI-33" style="edgeStyle=orthogonalEdgeStyle;rounded=0;orthogonalLoop=1;jettySize=auto;html=1;entryX=0.5;entryY=0;entryDx=0;entryDy=0;" parent="KMpIxaAEJdpiu075ooxI-3" source="KMpIxaAEJdpiu075ooxI-6" target="KMpIxaAEJdpiu075ooxI-30" edge="1">
          <mxGeometry relative="1" as="geometry" />
        </mxCell>
        <mxCell id="KMpIxaAEJdpiu075ooxI-34" value="{name}-private-route-table" style="sketch=0;outlineConnect=0;fontColor=#232F3E;gradientColor=none;fillColor=#8C4FFF;strokeColor=none;dashed=0;verticalLabelPosition=bottom;verticalAlign=top;align=center;html=1;fontSize=12;fontStyle=0;aspect=fixed;pointerEvents=1;shape=mxgraph.aws4.route_table;" parent="KMpIxaAEJdpiu075ooxI-3" vertex="1">
          <mxGeometry x="1042" y="699" width="80" height="76" as="geometry" />
        </mxCell>
        <mxCell id="KMpIxaAEJdpiu075ooxI-36" value="" style="shape=image;verticalLabelPosition=bottom;labelBackgroundColor=default;verticalAlign=top;aspect=fixed;imageAspect=0;image=data:image/png,iVBORw0KGgoAAAANSUhEUgAAAOEAAADhCAMAAAAJbSJIAAAAk1BMVEX///81lk81lU9rqnkxlUwrkki72MI0l0+qy7EAiTIAhSpvrX51sYPQ5NU2mFIQjDjz+PTG4M0lkUSLupXe6+Ecjz/l7+eGvpXv9fBdpW74+/kAhSVxs4KTv5xdqXGZwqJNnmGy1bsAgh1CmlhRombV5tmmya1jp3OgzayYwqGQw5262cJ9uIzI3c09llNor3oAfQwJXd4LAAAUAUlEQVR4nO1dC1viOhO2ISUUlWqlCEUUBK8ru+f//7qvucxkcimC7tp+z9P3nFUupWYyk7knnJ316NGjR48ePXr06NGjR48ePXr06NGjR49/gtfh9X5zPdwo/LqsMb0k2G82+/3T0+Zper25dDDV2L9ftk3CYUzXZVEWNfSPEPrFwvyLYds2DQcx26ZJIoRImPzFEvVAPlT/5HPzQpLA6/I6oT6irxLlW9tUHMIwr4fMmCJF0qJpYvJ/+ZgxwRR98iX5VF6qP8E07fVvvrhqm4wDGHNFnxy9pkIDhq/4aqgCRrKE/pIon9smoxkPpRLPJBEMaRAiIY+VmEqWCcEc8pgWYHkV387bJqQJ1YIbWlD45A8jqOoVAcQaARW4JhWZmnr+2DYlTRiVwCFNHw4dFIxZeIa1wEDmyKiS033bpMQxX3OgSGjZVIIomFmToG5A9ei5YEim1kDqY+l128REcVcwlDlcaXY1MkWAoFJpDQbQq98UxaptYqIYGz7BiDUZwK0EeMkE8EwvU8VVFONE/5d3kYlvBSwjAUShigH7B2w1Amn1kUBp1UuV/26bnBCjXDszQlty68joJSnfA88GTAlYCAaGxDo5STFomyAfVxcpLDrUkYz8shxKkB5tOzQzQWrhKr6etk2Sh1kukDI7XCOMuOpwCQqlRrXfpvjGQB/pGWCsHLVNkodHbvQjE0ZA0S0zGlINX+lYeCZ/aKLA8TFCoD6SDdumycE+B7VojH5itAeDwTP04bRaBd9AzYj6oGG3WbEJH7dNlINBatYX+GXgeQuhpVOAzTNcpVbR6iXFPBlfyLeKh7apInguQUcIs7pg9Ma5YQLIQEXDrGMHEi3AdqgL+aJqmy7E1XlqV5GjFpFRxFXFAIqRtxnqWftGcd6ZSPE619IncNCGTp4eBc4ETg5QKv9ls7YpM5gvTYRkXS9tA/jufHAEztepXrZaonXYoRTqsm3SDAZFYmI9WGraCRPH2rTZlhMBtUpIdCSMumbcqEnqv5ykKuYZ+N/oqKs7pS//dOTHYlUg86zhlqPMj1f3iwLUKsbICuXNPxz4sZhlhCqwBkoVnhDkVaCNXSnohrJZpBAdJcJR99kpvvMot9aF5iDT3T8b+LGYZzaWIGE9Y8XHSQb7PCXcYwkKa/n6r0Z+LF5SP4+kh3hq+LMfow5msAyl3Wg9jNq7EaDionJOT1aDm1KbCvDB4UHLYdR8l7qsS8ArOdlYq1QdFQdubtduGLUqPTUKQ/xCtmxUJnG06tmMuY2DnPnPT189FZEHBjkCNVsthlEvqSkbed7MF3MQYysKNtHIWIth1HTNTSLbkyu+/ZICXJWYD7fatL53MWgrjKpXjs0f2piPJfnXPJG5LLAmaFWt2vri/b6Np7GwqTS0YZKFxRfvuLcJx8TeTyRtVaMuUpF48YQOCvLNV285KFytBYFiS2HU2AkDLC+/UVeZLznjPBFcl7G4RG0YOZ+00KJR7TjoUIZ5eq1ZvzHhs3wSYr2dbFsw+4GBBslKv1NymG+uQzxdXrfgnM6kpdDqU1gTLTmZdbYMfxqGJTTLQAHJ5GmKRdtD+0tYuuUilNJut8OcgAdbD0VtqkjscjfMKTCNJYkpUVhF8y010yFcnSMLwY8xotqRDOe3ofNr2FNCHO+uZKm/izoshGyRW23pQvLvb2CfmxIgdpUYry3tTrXoexikpLHQtqYJnnarMv1ljEpdCjUlBov0oukjs/ljXhT5+ACKvCzxSZ4Vk3RcFPXDrCjKPBuPy/qCYtX4F/4mdD0U/BngoPw5fop/4umNC7AuiR9woTHFAiIKvowwmIwzTDaIF4MfyWdMM7L4BGlUKxtkdLYrzHzYyTDdX2QlC1DK2CoNRUV0nI4u1/0FCs0iJP1B9SrcxV3u4dLjli3gCCinCVsGJx4gvAJPfsqdMObelH2tz5Z+RBWpTNfTTJWXtYLeYdu44IbVpG2D/Zg7cbmli8o+iBrDfcqxE8oyyfVlbUsGzfgErbg/2GEzSO24CIV8GRHTVeFInTsvzK5D4b9DF61+9IPuxN7RNVb5RdbJNBOUPl8QcecC6f0mDXwJVmhq/GjzybCkLb6WidsgXzTNdR8XtpAy0y9E+1JAr5Kqmp47w0T14GcDz5ldiWTWY1m2p1LYQYsEmk/RykBLuPDlGPx608Lw43GZzHZTpWjWWrhU7lNGryGCDVMDHyU3s01jllye/WxcVi1SMNwyq6+d03pgqZ+k2UAgKYx9IW4QPMIOI6DLMBh6/dRbTe7EP8NDjkPE4creQp+J05IyELZ3Qa+igBsIFHQhbN7O2g7G1z8el61M/h3Mm3HD/dUyJT0WVqt6DbOoMZMkYYm3IrW6aaHWDb6bafKF8XIv4a0pNA1rtGxGCEBz4bg7xD2vve82Soh1DEUFEDjKS1ecNqV3jfMhm1MWVHW5l9fSX7ZRBp6uuR0icW08iyENC82qhmAJ2X6B1t5x6DhvgUDsfEYtCQP0vMf5Y8o8AfQhCRSgjiOsFllLW2iW3jDNoPxOmvnvMpRSSkXTm/hGay01q9wZDzwIupimo2XhtN00EBQjT/5qsS1KWgzhskFaj3DKpzd/xuUR7dAJ7aDFLSotdpkOOTd+ijP/ItbFVL1/3g094DaZQWS3zSyz9t18B7UOFL92u4c0Zu9b3Yw4z2DjK/haWsV/sWVynDgTpu5Yu9ytNicuUsI6kjL6SiwHXV+2VqBn68uNHX8Fs5KkbCDIrX9+Rb+bxgCBJzAofLG96u9h5TllJuz7Qigguy+x35/sKmm9K+AldQXU5NJOD+eGOUkNYxjcgT7vPWk6gbyD/L8pw9+IR6pCMYXRhXLdMkGfGSVMZsZOrKE8QL8X3kI+7cS2dbLfgizFhOUnKZuRzRkQk+FHm+3AbM2D1K61GKekNyu7GcEqmTBj0BKG3M4+pG/lw1OW0HupUxyM7i4SIpZEbwPnKWgZpyRxgu82Hwv0GXCOfrAS8xn23kqECL04+jykAc4R9XJ52gFFqjEsE+NFOrn+9PzIz+8ZCQetZS27oEg1Zmvru9niQ+1SHre3bjrmCUmgoqrqhprRGBnfjaEu1fsIj1M2KvVKfG1jEjuzCiWqBffcSb3DLkjyRzFmCZbXSKK7W+1VryUtV2OpSaR59hnyjAv3c/p3WzsQmgB5NzykBcRWtqIz047OdWu6hXrNWAnnUDCWpBcda68a4kbLBBcVcgYLLdjdQOpngiT0MXo61en7CYxKRkq9Ao03/tDLDEowWL83x4UQBqorOnUohoZJ8ickyCCJRuKxMkO/V4YhoYn81y01ozFIgSwrmwyZggwyFAlVbWSJdRLwOBD5tJVKzKcYg4Qh08hZHnqJ0Z4SvR4xswPk6f1464643C7U3jrYxaZNnKWTWWNnnpjDlsxDxhJmzWnnjlDSqD4KLGMjX1CDaCPAiDoRJLkt4CJ1YWd3NOwZd2yD7bfA5ZfYFYmbpVDT4FUdVKQGsqIoMEAAvaopwHXGyFPS5JDgbLCvFgV+APMsAQvobNJPSAuN458zBgsQGClfyDvcS71IVVOXPtGMNFxAE43bR6OTFgK6HQyvRfHeNhkHEOTdfDQXuxnqp+2pmdYfxU0Jvom3nxfO/Aq6gOGEPmxFOS7iag8DGSgK17CbR6hLhPemk4hk3TqILoRN8oNNjwhk4poHong7kuU+iMdUHWHG7T/OzU/9T59fZv7D5/hr3LUzLwPMX445wKwRL11KzvTo0aNHjx49evTo0aNHjx49evT4f8Zs2k7lbDoaPX+yh3E0Gv2FPNh0m51/9zSw59Gnd7iuR+u8MFgXRbnYHEhV7m/LouCv/izMXm+a8oLRxsRf6zThuX1r/1pfeXFw5gYf9SXvtqJYrfKi/Di4CWM+YEWR/7Lk3CzVVxPwYtlY1pou5YYdUW68RqVhxpuQPobHVb6U6oBnLPHWt5VX7poPtny9l1fwAk+GvNwVaqz/NRO4y1SltsRmgGk2Men1ybhpNmcmWV9628iWmJanv/XjyJazge6AwlPrVvosH142DXaWcVPlyM1nctNElb43dIVVtzAC8QvuYrcR8qaGRziAzrvgoSDdPgHCbxQ1FBawRpZ6bpvL2gvb1qln4SmH1hV+H1dZdyn0DuDeWroVtGjoCM1EjMKrBXzLkwHUPQ2ChoOB7ipCCsdGehp6bau7AtsAWPFHjx/qVSLlERKruwL//ATKWBk9FrCBxDxKYeMZ4zDtvs4bqAXPQgqjmzMq8+UnjMzCZc6wLsfvA0GtPlJS0UMKHQbEv3YjNyVah0LbGqzeRIFCTgr/G0VrHso3j6TwvqAL2/B5ObEvhYJ6x+2SsedWZchAxdpoU6A5GYE5FA5LECExmQg4Elc+5kC0d4azvw4PUnjltDsmXFO4oJvluCuo1W1Btd0WWJzRmarX50XE9IMycih8hOn8/TaUuB5q/BquzTfj+J3Mp1A421FakIczhwhHUGsRpR+wjVUuhbWWv4tQaMrwlMIHuB8PKu9zkHxP9zZQGDvKbr51CURttMontkzuCCpqUf1H7vAdl0J5r3XAxQgPR2bNJ5NIgw9aILddP6CQNfFw/ugRCFIqj1WZ0JdBUKXipa/f2pspCp0zfsIvUDEDJjy030QWU7/4rnucy/FSOkj9eUcKz24cFW4EtfowU6Jb58Q7ISHgYT3zvhrOzUcthbZ1JroTeWT2SzJOt0hqa3EEhftwTJZCQyJcogVVmk7bN1fcUh4hhbUNhUfcU/PGkyA8fIS/0dApias0J7c6dh0OuXElGEfRIxSevTmnOXA+PyCilMLdEA2cf1BDsA73cHaL2DVEJI9pPXxJwW97wYu2KQV4Ag0Uqm/V0XNxMYQ/RCk8u3FJXF9QAgV/d1dZZm8x52ZnSJK6xjqgcADflFZENK/CdLVU+ynGpN93/p88unO5Ay0Xp3CPSr+4q84gLnAorEmkLVfc2VHuiiilcCB1NFzndlr7FD7jYv/WTuQohdUFUKjsFhoe13d9cLio7gIXuiLqUUhczYw20HkUWkX6vZ3IUU3zgENQcgQU+t75TYNTLN4DW+dYZ3WwgVa49AC9nM6C3AQEMvq9Hq0YD5/xZAWdC2jgob8WAYGI+hTWETJuryNHlLixxRy3JbPvHf4T4eEN/Cn4iqBsQmMLioc8jExDET3zpFQHIKZn1zorrpQO0F/75skx44nRa0jhCqQDxSNrjiEDLvLfb7F8mkfh2RCDFht6OxReo2klRzrs3wfnEtGsFMryy/trDXwa8nAJRgjlX/FQHucXiZJXjhWMechRCsl5einkIRwKh3gEYI43eSzTxpwUx4zNQrcglp49RAqre1T7v0HRNa5DNWOO98ryeEY0oPBshZ/Ljc/prsMBHAadQ3BEz44g0Y2RdoyhPvHaqgsMYG1OrEmXqut9Hsb32mSmV57EDW8F9O3m+iwd9DJdTYMfeaGxdeKBYRw84HpjWkNssYPtspxbJXdgHd7z4K9F01MhD9GBZInQx/nlptveXHMN1gOc0oHzt+gWroSeL6xvG+RpjLUYIEd+k8C5UUqrRRro0nh6KkbhfgxOUaoiKS8ThRYfjoZ4OXBaGTk+IszTMMvD6RoG7OzibpLSOlyKpTHT+1BQYxSeDXN0wnchhej6QPg3X5P55A4X6bGVh+LDK/zqPPfE5SYKFzw8t1b+OREKapTCsyfwUEW6q2Ket35hAtn123zrfEcTKquI8Mek1Ab13HX64xR64RIlMV37JDbkVN7wFjUTgnwpKk/Qk9NnSERpoPuckzXVyMOP+W8rM66rG6VQ50UR3M07+oLaQOEZmdSqCLL6S0h3T+JbXCDv5Ryn1EQhX9tvd8w8DkQ1jcNBUSycSEPwuyp+C49Cm+3idlHiNXNYa2m0jDbbwewck6chAV5x790pQiFN3UuKbrWXgq+JNK2it/DLMrNtoKzINfgVpLEA6goySW6Oo5FCRPj9DqGU1oaeEChSFU24wVR6N4vcIiw8zTN/BOQa/EKk2EalWWY8BLc4ow9GJBS6d2cqqG+g0PJw4ZgmCJeQRKZJjOTaIqW1e19h0WtQFUWOVPsvXjbzeahm0Elhh5Pl+zTVIhBRjYfcUTdbS+IBCquB7/g5WX14MYihLmE+vWTxJ1IanJUdofDKGZKTF70pHRIvMAMGlZlYebS6c50VrzKjvVfhn8i1h83M/rl0IYWM8jB6no0npe4WRzeih/SUrwLi1U/A2olPnGvm8J4o3eNK4DDFNFJdi/JQjyB+zICnaR7plPgRvZuewk1iB6T0zJ7bHbsGTvkye5vNtnrc5yyC3aBRCv2g/jCFVrAZC5NONyU5HNQG0dHR2w8RSyO8a6AA5lavoLYfRtxNVW5FQUNSKzOSrKX0AYprLJ50ugF1w0gNeGymv6lN4Rm/yYgFswAVWf/bDNSjsCbV0KmgKWxIaoGm0QWgN1SkPJp0IoLKsCiGprupEWNj3ejCU5s3juZ2+MnSUG+E3SagaZq/3ME4jxPjzWXmj4hJNOlEuGjF/upen5bmj97ieqvjOl788VTHNONO1GQheGQ36B+1EVrgIfmyY0h+MN1OGpuVLv+oFqHUJAr+K/QfLBoP8r3J9Zj4BG1PtZgUhVgf2EP9tijrS9IklIvRLo18va2MniaxmtRryQUnzRD790VZlOvbQ4nl6qa+5M8tzO1Gdg8U6wN5zIePmhxW3JOM9nA4Gm0O7oKvRr/qS4bhNU+zzTCKzXXshlejdXbhkF49j0afbf2tL7GuwGyY5ZPDH7naDLNs1dYBMH+h+3I6/bxYMu38hukePXr06NGjR48ePXr06NGjR48ePXr0+GH8D7xG/sLiqwnsAAAAAElFTkSuQmCC;" parent="KMpIxaAEJdpiu075ooxI-3" vertex="1">
          <mxGeometry x="574" y="648" width="42" height="40" as="geometry" />
        </mxCell>
        <mxCell id="KMpIxaAEJdpiu075ooxI-37" value="" style="shape=image;verticalLabelPosition=bottom;labelBackgroundColor=default;verticalAlign=top;aspect=fixed;imageAspect=0;image=data:image/png,iVBORw0KGgoAAAANSUhEUgAAAOEAAADhCAMAAAAJbSJIAAABX1BMVEX///82OVRPZy8aGzEYGTAAACIAABlPWHYTFCwQEStDSWZHTmtJUW4AACA5PVhDSWU/RGDx8fLd3d4AABbPz9JGRlVSXXqBgYwAACWWvD0HCScAACGbnKMAABDGxsp5mTdVV2QPEC6qqrF3lzf5++zm5umEpjq4uLx4eYRiY28vMEJvjTUAAAAAABwvMk+LsDtZczGQtTwjJDqIiZMoLEtkgDNbdTH5+/QeIkVxc4WVl6RdX3RjgyXu9OGewU6QuC+604Vhdj7h6aNMTVt+gJKjpbJob4exsrzR2cSzwZqesX6pvInH07Lg59OOk6aAl1h0jkVpiiJ7mUGiuHdvkxuWsGFXWW9VegB+oyDK2qmtyXC7zpWMrEjV4L2jxFnZ57yzxo2qyGk+VyR/kVWXp2fK1Y/p8Lf0+NDw9MqywneyzXTY4ZeFm1CesWegro2HmHKvuqJBXBmqtJyIl3UQFj0RlwjwAAAL80lEQVR4nO2cDVfaSBeAA0k0AUGCATEiIBqUIKESKAJSv0BsV+1qq6v2a3db13bbbre7+//Pe2dCIAi01WoB3/ucU6AhDPPkztyZIdMyDIIgCIIgCIIgCIIgCIIgCIIgCIIgCIIgCIIgCIIgCIIgCIIgCIIgyP8bkqr6Caok9bsqt4Akl4rHvtwKkHOMl4262u8a3SyRqiunO1roei5Xrt0ZSbXm070+n8/r9TrslrmVotzvut0EUm2U6HUa0lAW/f2u33cTKftcLpdleFnRoTtKw511pJLL5Xa5xsd7GTocufIwN1V12+V2f8UQmmq93/W8NnLQPfZ1Qwhjqd81vSby6NjYFw1hzNAJuRWj33W9Fn4iSBS7G+q6r2zUIjJQLxVr/a7tNVCDY6O9DWEsXBjuJMpI22OjPQ1zjhrRq+w8fET4aXev0O/6Xp19EOxhqOsGzNcqDx/nV/M/P378+EPq4ODwybBJykSwu6E+HgG/R/nVxw93KgXK3u6Tw6dHL4bKcXu0l6F+rDKFh6urj/baPlDYBcdKn2p7DepjwR6GubLEVD788qhTprCbODntQ12vhRoMdjd06EWJ2TlM7TLzzzpt5o9O1oekpdZGexlCE92b+7DHvHh+ctblg88y64XC/HyFMj+4ttJ2L0NdZirRwz1m9+nzzrxSqLw4fTD18uWDB1OUBy//PH813w+BrxIZ7dFK9RJTOHpaYSoHh+39sFA5Pf9tam1tbaodOLA+iOmn2svQyzC/Pn3BMD/9YkuklVfnD9ZscsuZTAKIRsljJrM89ap/Jj2QtoPdDWGZtJd4Ame8OWycWnm1/nKqKbecSUTnUoS5uahpSBTX+inTFTnYw9AtMe8SpNEV6MML2jBNt+VENJXKE0xByzBDDPe+9o0/GpJJuxk69plK5lfznMKr9QdW7DLRVP4+0BS0GdIYDlxPrPaIISTSZyektpXT3xr9bjkxl78HWH4dhiSGU/0W6iDY1dBLpmvLZ8z8K2ibZq8DO2fDrxnDfGcMB26iI3U1dBzXVGZ+7Qwapxm81H2nk/qZjmA2R5xoqrHHcPls4AZ+tdkNW4beMfIDd+FZI68kUveczqbg/fxcAtpik8Rcymb428D1QsbfYehzlMBv/tQMX6ahZwJ2y2abheiRRjqXmVpuxfDkbAAnNfIlQ5dvm8TvnOaW5ej9lt29fHTZSjfO3393bgBw+D401YbhybN+23Sj3dDtctfAz4xfwh4+Uy8Tzd8Dt9dv3p2/f7+5ufn+MTRbK4ZHAzcSUtoNXUGZYfbOqF/eFr5UhhpDRDdePznf/OPtxUXl4g9Q/ABJhxp2m5wPBm2Zxh2EFnpKhgd783Smls0G+/vGG7C7qMybvN18/zHfmLQd7g6oX7uhOygxhXXwS9j98hmSb0y9txfzTd5uvqMDfurg6cdBjR9BCrYMR/1MAVpom58zCvGDBvv6HUSvpVcBv8M5GA1XDw5/GrwRoo3tpiJJMn+uLaeclwSj4Aets9Lyu/jj/AiSy9zq6s+PdgY4fCb7luEYdMLTtcS9NsH8FBhv/Lq5+bYZPdA7ew7TmVT+50eD2/ts1K2OOFZlCg/yTuelEOadG2RcuDDt3m6un8HcJXqwmh+C6Jn4rRi6S0xl9ZKgMxV13nuzafL+/N1R4iSROFi9//rvwRz7umOt8d2wIPx82dBJFhEfPn78eHT0nMy0id1fNHiSvD8sd/Vrjd9pxrYl5lOnIky16RppNQ8L309/7dA7FlLEOM45+l3zb8XfzKURptBFEfj8+bNz49PfO+awoNaL3hVdH6J7wfvW76VBaHY7nz4Tn6YZsLHxryUH0Vso5sztRPqwNFJzamrO2kbJLoTCzj9//fuJ8O8///wNrbKVMqVI1WvtltKL/avxlamONgzdruZ+GbuXKst+utft2L4ZbJi2nfite0/uBYhoqbQgkx2JDJGq14xisSpLjFor63a/3HBtV9i31hal2rbP582t6FUImlo6Xvnvv3JdYqR6sU0P8A3XRj7J+iXKBXh91QjZwHe8srJSJnfwI1ZusbES6Xedr4jcWuNX6zRh+nTHMfm9Rq6O65f1hq6NEurmXoxtslU2Uj3Wda8DcqW/VO6iR+59D+Hek30XRHCfSnm9vmK97Ch3dj5LcHy4OmGDml8tb9eCXh/0RJitFB3eruEjgr7hGevbkOqjbnNzou+4SjcqdN+5p7uHVJBhSu7G5kSXz9t7b2KuPJRN1KQ+SmP45f2lxSFMMi3UbZ/ri4Y5x/Dun21QH/X1NtRXqkPcQi1Ukk67Gub0u/HPEUhO3fY5vJd30ObGjTviR5DkWtnr0C1gVjpejdyB9tkOLJxK1SLBqN09OwRBEARBEARBkB+E6h+QnxSlhclkMrlY+p7qqMZisvl5SaK33Ra1rDYQi8aINsIrAD+yeP3fAOUlZcb6AUOenQ2RmzIxRcgOQhD9SwIrKCFeYNmRxWuXIo+wI5ZhJMTxk/AcE7lvN7zF//0lqbCiZhjGlsJeoUKXaTMc4SeuaBgWReG2FCWWEwKkt0gxkfUsXLcYu6FUMgxyb/QKhpO8wN2a4QTLm3cyw9PsdPi6xdgNLa5iqHC3ZzhjecU9LG8ZSn6//0rf2MtQ/bYhgxhe5euuAhh64vRV3TKUJkMzExMTM6HJhqQUj2nZrLbYuC0fCSe12Vk2FrddA7uhGl6MESsw1IqemYmZmZglGU+SgpKNzqAajtnZbFIihixrhEvmBW4knbgRv5GwdhpKWx6O5Tj4Mx2gXxHRPKKoKKLCJ+nbIV4UANFjG+3aM42SNvshy4mkIFYxW6tf8yhmQVt0m4oGvY8TPLJpyHs8S6QamkbzApMcWbqRsabTMDwCVWKzHHypx6AVgWwbiMU0gfPA+2qIYwVW0+BhujW6tBkqXKhhyMKQyJLa02sT4xsFsWlSsDEN76fTMxHTUNM0BcTDadG8cklx4pYMkyKrGNAPFxVWIEGE47SnqhonZOEDs5B8ZUmSAwLXyvA9DJVF2e83eFYglYZzQgZ8Qt0SuCw8BwRWnIwskLkU9EPWr6rELMxzt2woBQQxRt+BoEGmYMA0TU+AF0vU0HwfMtNIswrdDQWzmZNrAW+WeNZD/x7m2Rl4YRXEtGWaH2Ko0NYnmbkQpgTcbDfDSNqWPrsbNgygBGJohBoFNQ0Vq5nbRosfYzhpVqxlqEowm4b+M2IzbBsgvmi4aBmys35SEDTf9EAYNmPIcrPaViwL3WbLHsNrGNKCNBE6ODNYhixZfIgiTxL7dxmyIZ4WtLQwYIZcOBnQtJhBvvH7YmiQgrYm6akDZNhIEI0PfIchLag5wvw4w/Z5aTOX3oqhfR72owzTbKjUKJpGszVabAlWK/V8i2Fz6dU5WohWK/X0NrSuIhiac7yAcEOGmiBs0RcwxSAVg2c6A4GKmnMamJKkralyb8M0y2nhhbgBkxbLEIJPrhDjn+XoC2gknnCrILshTAb4sF+OwNfF0zClgkML0+zNGMLiE9b4k8Yi5HCRCBFTAQ4kBY7lSQ0iPEwfY4YxmdSUnrlUzcJMneenyWzcMgynWSELJcMwo5BP+GFGq2xNkoLIXNRuKJO5sKIskSs8w3FKVstCBr8hQ1WAXqKEFIETQyRUxJAcgFWByNGvSHrgJc9DlmdVYigopuEEN9FaEhoTZL0hKHCRIiGBJwZSFnoXlAwPHD3RGIGCFBgvBLpqmBX45tR9cQLWKyI9HPZAoxZERbgpQ8YfY0MejyckBOj6Dww5TYMj02LAFJAms+QEfpalK4RsliPPjBzKhmyL3jAMAwDUWeayIi3Kn2yUvNU4r5RVpqEghSUDPpPNCpPNjy8kA4GAKVzfypLVaOyG+iGtSWQBaNSCjhZSpHWAHKMnNHbMwBJAsl60l2OlkdYbqr3kywVJVkEd0HduKpd2lt4cLfrMrRpOfv202yd21w2lLHd3DaVwvB6PKezM3TXk0pDJWZG7nfs6kjYx0+dMIwVGeN4zod3WPyryR+L93gYrx8PheGSod8MjCIIgCIIgCIIgCIIgCIIgCIIgCIIgCIIgCIIgCIIgCIIgCIL0if8BKvceOr4kKj8AAAAASUVORK5CYII=;" parent="KMpIxaAEJdpiu075ooxI-3" vertex="1">
          <mxGeometry x="687.8199999999999" y="841" width="40" height="38" as="geometry" />
        </mxCell>
        <mxCell id="KMpIxaAEJdpiu075ooxI-38" value="{name}-eip-1" style="outlineConnect=0;dashed=0;verticalLabelPosition=bottom;verticalAlign=top;align=center;html=1;shape=mxgraph.aws3.elastic_ip;fillColor=#F58534;gradientColor=none;" parent="KMpIxaAEJdpiu075ooxI-3" vertex="1">
          <mxGeometry x="636" y="66" width="78.5" height="21" as="geometry" />
        </mxCell>
        <mxCell id="KMpIxaAEJdpiu075ooxI-39" style="edgeStyle=orthogonalEdgeStyle;rounded=0;orthogonalLoop=1;jettySize=auto;html=1;entryX=0.5;entryY=0.69;entryDx=0;entryDy=0;entryPerimeter=0;" parent="KMpIxaAEJdpiu075ooxI-3" source="KMpIxaAEJdpiu075ooxI-10" target="KMpIxaAEJdpiu075ooxI-38" edge="1">
          <mxGeometry relative="1" as="geometry" />
        </mxCell>
        <mxCell id="KMpIxaAEJdpiu075ooxI-40" value="Auto Scaling Group" style="rounded=1;arcSize=10;dashed=1;fillColor=none;gradientColor=none;dashPattern=8 3 1 3;strokeWidth=2;fontStyle=5" parent="KMpIxaAEJdpiu075ooxI-3" vertex="1">
          <mxGeometry x="15" y="765" width="840" height="195" as="geometry" />
        </mxCell>
        <mxCell id="KMpIxaAEJdpiu075ooxI-41" value="Auto Scaling Group" style="rounded=1;arcSize=10;dashed=1;fillColor=none;gradientColor=none;dashPattern=8 3 1 3;strokeWidth=2;fontStyle=5" parent="KMpIxaAEJdpiu075ooxI-2" vertex="1">
          <mxGeometry x="50" y="580" width="840" height="200" as="geometry" />
        </mxCell>
        <mxCell id="5gtI1k8FI_1MkxJHYHrb-2" value="{name}-backend-sg" style="fillColor=none;strokeColor=#DD3522;verticalAlign=top;fontStyle=0;fontColor=#DD3522;whiteSpace=wrap;html=1;movable=1;resizable=1;rotatable=1;deletable=1;editable=1;locked=0;connectable=1;container=0;" vertex="1" parent="1">
          <mxGeometry x="352.00272727272727" y="861" width="165.63636363636363" height="130" as="geometry" />
        </mxCell>
        <mxCell id="5gtI1k8FI_1MkxJHYHrb-3" value="" style="sketch=0;points=[[0,0,0],[0.25,0,0],[0.5,0,0],[0.75,0,0],[1,0,0],[0,1,0],[0.25,1,0],[0.5,1,0],[0.75,1,0],[1,1,0],[0,0.25,0],[0,0.5,0],[0,0.75,0],[1,0.25,0],[1,0.5,0],[1,0.75,0]];outlineConnect=0;fontColor=#232F3E;fillColor=#ED7100;strokeColor=#ffffff;dashed=0;verticalLabelPosition=bottom;verticalAlign=top;align=center;html=1;fontSize=12;fontStyle=0;aspect=fixed;shape=mxgraph.aws4.resourceIcon;resIcon=mxgraph.aws4.ec2;movable=1;resizable=1;rotatable=1;deletable=1;editable=1;locked=0;connectable=1;container=0;" vertex="1" parent="1">
          <mxGeometry x="394.8249011857707" y="887" width="80" height="78" as="geometry" />
        </mxCell>
        <mxCell id="5gtI1k8FI_1MkxJHYHrb-4" value="" style="shape=image;verticalLabelPosition=bottom;labelBackgroundColor=default;verticalAlign=top;aspect=fixed;imageAspect=0;image=data:image/png,iVBORw0KGgoAAAANSUhEUgAAAOEAAADhCAMAAAAJbSJIAAABX1BMVEX///82OVRPZy8aGzEYGTAAACIAABlPWHYTFCwQEStDSWZHTmtJUW4AACA5PVhDSWU/RGDx8fLd3d4AABbPz9JGRlVSXXqBgYwAACWWvD0HCScAACGbnKMAABDGxsp5mTdVV2QPEC6qqrF3lzf5++zm5umEpjq4uLx4eYRiY28vMEJvjTUAAAAAABwvMk+LsDtZczGQtTwjJDqIiZMoLEtkgDNbdTH5+/QeIkVxc4WVl6RdX3RjgyXu9OGewU6QuC+604Vhdj7h6aNMTVt+gJKjpbJob4exsrzR2cSzwZqesX6pvInH07Lg59OOk6aAl1h0jkVpiiJ7mUGiuHdvkxuWsGFXWW9VegB+oyDK2qmtyXC7zpWMrEjV4L2jxFnZ57yzxo2qyGk+VyR/kVWXp2fK1Y/p8Lf0+NDw9MqywneyzXTY4ZeFm1CesWegro2HmHKvuqJBXBmqtJyIl3UQFj0RlwjwAAAL80lEQVR4nO2cDVfaSBeAA0k0AUGCATEiIBqUIKESKAJSv0BsV+1qq6v2a3db13bbbre7+//Pe2dCIAi01WoB3/ucU6AhDPPkztyZIdMyDIIgCIIgCIIgCIIgCIIgCIIgCIIgCIIgCIIgCIIgCIIgCIIgCIIgyP8bkqr6Caok9bsqt4Akl4rHvtwKkHOMl4262u8a3SyRqiunO1roei5Xrt0ZSbXm070+n8/r9TrslrmVotzvut0EUm2U6HUa0lAW/f2u33cTKftcLpdleFnRoTtKw511pJLL5Xa5xsd7GTocufIwN1V12+V2f8UQmmq93/W8NnLQPfZ1Qwhjqd81vSby6NjYFw1hzNAJuRWj33W9Fn4iSBS7G+q6r2zUIjJQLxVr/a7tNVCDY6O9DWEsXBjuJMpI22OjPQ1zjhrRq+w8fET4aXev0O/6Xp19EOxhqOsGzNcqDx/nV/M/P378+EPq4ODwybBJykSwu6E+HgG/R/nVxw93KgXK3u6Tw6dHL4bKcXu0l6F+rDKFh6urj/baPlDYBcdKn2p7DepjwR6GubLEVD788qhTprCbODntQ12vhRoMdjd06EWJ2TlM7TLzzzpt5o9O1oekpdZGexlCE92b+7DHvHh+ctblg88y64XC/HyFMj+4ttJ2L0NdZirRwz1m9+nzzrxSqLw4fTD18uWDB1OUBy//PH813w+BrxIZ7dFK9RJTOHpaYSoHh+39sFA5Pf9tam1tbaodOLA+iOmn2svQyzC/Pn3BMD/9YkuklVfnD9ZscsuZTAKIRsljJrM89ap/Jj2QtoPdDWGZtJd4Ame8OWycWnm1/nKqKbecSUTnUoS5uahpSBTX+inTFTnYw9AtMe8SpNEV6MML2jBNt+VENJXKE0xByzBDDPe+9o0/GpJJuxk69plK5lfznMKr9QdW7DLRVP4+0BS0GdIYDlxPrPaIISTSZyektpXT3xr9bjkxl78HWH4dhiSGU/0W6iDY1dBLpmvLZ8z8K2ibZq8DO2fDrxnDfGcMB26iI3U1dBzXVGZ+7Qwapxm81H2nk/qZjmA2R5xoqrHHcPls4AZ+tdkNW4beMfIDd+FZI68kUveczqbg/fxcAtpik8Rcymb428D1QsbfYehzlMBv/tQMX6ahZwJ2y2abheiRRjqXmVpuxfDkbAAnNfIlQ5dvm8TvnOaW5ej9lt29fHTZSjfO3393bgBw+D401YbhybN+23Sj3dDtctfAz4xfwh4+Uy8Tzd8Dt9dv3p2/f7+5ufn+MTRbK4ZHAzcSUtoNXUGZYfbOqF/eFr5UhhpDRDdePznf/OPtxUXl4g9Q/ABJhxp2m5wPBm2Zxh2EFnpKhgd783Smls0G+/vGG7C7qMybvN18/zHfmLQd7g6oX7uhOygxhXXwS9j98hmSb0y9txfzTd5uvqMDfurg6cdBjR9BCrYMR/1MAVpom58zCvGDBvv6HUSvpVcBv8M5GA1XDw5/GrwRoo3tpiJJMn+uLaeclwSj4Aets9Lyu/jj/AiSy9zq6s+PdgY4fCb7luEYdMLTtcS9NsH8FBhv/Lq5+bYZPdA7ew7TmVT+50eD2/ts1K2OOFZlCg/yTuelEOadG2RcuDDt3m6un8HcJXqwmh+C6Jn4rRi6S0xl9ZKgMxV13nuzafL+/N1R4iSROFi9//rvwRz7umOt8d2wIPx82dBJFhEfPn78eHT0nMy0id1fNHiSvD8sd/Vrjd9pxrYl5lOnIky16RppNQ8L309/7dA7FlLEOM45+l3zb8XfzKURptBFEfj8+bNz49PfO+awoNaL3hVdH6J7wfvW76VBaHY7nz4Tn6YZsLHxryUH0Vso5sztRPqwNFJzamrO2kbJLoTCzj9//fuJ8O8///wNrbKVMqVI1WvtltKL/avxlamONgzdruZ+GbuXKst+utft2L4ZbJi2nfite0/uBYhoqbQgkx2JDJGq14xisSpLjFor63a/3HBtV9i31hal2rbP582t6FUImlo6Xvnvv3JdYqR6sU0P8A3XRj7J+iXKBXh91QjZwHe8srJSJnfwI1ZusbES6Xedr4jcWuNX6zRh+nTHMfm9Rq6O65f1hq6NEurmXoxtslU2Uj3Wda8DcqW/VO6iR+59D+Hek30XRHCfSnm9vmK97Ch3dj5LcHy4OmGDml8tb9eCXh/0RJitFB3eruEjgr7hGevbkOqjbnNzou+4SjcqdN+5p7uHVJBhSu7G5kSXz9t7b2KuPJRN1KQ+SmP45f2lxSFMMi3UbZ/ri4Y5x/Dun21QH/X1NtRXqkPcQi1Ukk67Gub0u/HPEUhO3fY5vJd30ObGjTviR5DkWtnr0C1gVjpejdyB9tkOLJxK1SLBqN09OwRBEARBEARBkB+E6h+QnxSlhclkMrlY+p7qqMZisvl5SaK33Ra1rDYQi8aINsIrAD+yeP3fAOUlZcb6AUOenQ2RmzIxRcgOQhD9SwIrKCFeYNmRxWuXIo+wI5ZhJMTxk/AcE7lvN7zF//0lqbCiZhjGlsJeoUKXaTMc4SeuaBgWReG2FCWWEwKkt0gxkfUsXLcYu6FUMgxyb/QKhpO8wN2a4QTLm3cyw9PsdPi6xdgNLa5iqHC3ZzhjecU9LG8ZSn6//0rf2MtQ/bYhgxhe5euuAhh64vRV3TKUJkMzExMTM6HJhqQUj2nZrLbYuC0fCSe12Vk2FrddA7uhGl6MESsw1IqemYmZmZglGU+SgpKNzqAajtnZbFIihixrhEvmBW4knbgRv5GwdhpKWx6O5Tj4Mx2gXxHRPKKoKKLCJ+nbIV4UANFjG+3aM42SNvshy4mkIFYxW6tf8yhmQVt0m4oGvY8TPLJpyHs8S6QamkbzApMcWbqRsabTMDwCVWKzHHypx6AVgWwbiMU0gfPA+2qIYwVW0+BhujW6tBkqXKhhyMKQyJLa02sT4xsFsWlSsDEN76fTMxHTUNM0BcTDadG8cklx4pYMkyKrGNAPFxVWIEGE47SnqhonZOEDs5B8ZUmSAwLXyvA9DJVF2e83eFYglYZzQgZ8Qt0SuCw8BwRWnIwskLkU9EPWr6rELMxzt2woBQQxRt+BoEGmYMA0TU+AF0vU0HwfMtNIswrdDQWzmZNrAW+WeNZD/x7m2Rl4YRXEtGWaH2Ko0NYnmbkQpgTcbDfDSNqWPrsbNgygBGJohBoFNQ0Vq5nbRosfYzhpVqxlqEowm4b+M2IzbBsgvmi4aBmys35SEDTf9EAYNmPIcrPaViwL3WbLHsNrGNKCNBE6ODNYhixZfIgiTxL7dxmyIZ4WtLQwYIZcOBnQtJhBvvH7YmiQgrYm6akDZNhIEI0PfIchLag5wvw4w/Z5aTOX3oqhfR72owzTbKjUKJpGszVabAlWK/V8i2Fz6dU5WohWK/X0NrSuIhiac7yAcEOGmiBs0RcwxSAVg2c6A4GKmnMamJKkralyb8M0y2nhhbgBkxbLEIJPrhDjn+XoC2gknnCrILshTAb4sF+OwNfF0zClgkML0+zNGMLiE9b4k8Yi5HCRCBFTAQ4kBY7lSQ0iPEwfY4YxmdSUnrlUzcJMneenyWzcMgynWSELJcMwo5BP+GFGq2xNkoLIXNRuKJO5sKIskSs8w3FKVstCBr8hQ1WAXqKEFIETQyRUxJAcgFWByNGvSHrgJc9DlmdVYigopuEEN9FaEhoTZL0hKHCRIiGBJwZSFnoXlAwPHD3RGIGCFBgvBLpqmBX45tR9cQLWKyI9HPZAoxZERbgpQ8YfY0MejyckBOj6Dww5TYMj02LAFJAms+QEfpalK4RsliPPjBzKhmyL3jAMAwDUWeayIi3Kn2yUvNU4r5RVpqEghSUDPpPNCpPNjy8kA4GAKVzfypLVaOyG+iGtSWQBaNSCjhZSpHWAHKMnNHbMwBJAsl60l2OlkdYbqr3kywVJVkEd0HduKpd2lt4cLfrMrRpOfv202yd21w2lLHd3DaVwvB6PKezM3TXk0pDJWZG7nfs6kjYx0+dMIwVGeN4zod3WPyryR+L93gYrx8PheGSod8MjCIIgCIIgCIIgCIIgCIIgCIIgCIIgCIIgCIIgCIIgCIIgCIL0if8BKvceOr4kKj8AAAAASUVORK5CYII=;" vertex="1" parent="1">
          <mxGeometry x="414.81999999999994" y="906" width="40" height="38" as="geometry" />
        </mxCell>
        <mxCell id="KMpIxaAEJdpiu075ooxI-28" style="edgeStyle=orthogonalEdgeStyle;rounded=0;orthogonalLoop=1;jettySize=auto;html=1;entryX=0.5;entryY=0;entryDx=0;entryDy=0;" parent="1" source="KMpIxaAEJdpiu075ooxI-6" target="5gtI1k8FI_1MkxJHYHrb-2" edge="1">
          <mxGeometry relative="1" as="geometry">
            <mxPoint x="441.9000000000001" y="861" as="targetPoint" />
          </mxGeometry>
        </mxCell>
      </root>
    </mxGraphModel>
  </diagram>
</mxfile>
